# xmcd
#
# Track frame offsets:
# 150
# 13147
# 25650
# 39390
# 51745
# 67705
# 81417
# 96562
# 109400
# 125152
# 138862
# 150257
#
# Disc length: 2168 seconds
#
#
# Revision: 2
# Processed by: cddbd v1.5.2PL0 Copyright (c) Steve Scherf et al.
# Submitted via: FreeRIP 2.951 
#
DISCID=a108760c
DTITLE=Percy Sledge - When A Man Loves A Woman ...
DYEAR=1900
DGENRE=soul
TTITLE0=When A Man Loves A Woman
TTITLE1=Cover Me
TTITLE2=My Special Prayer
TTITLE3=Sudden Stop
TTITLE4=Just Out Of Reach (Of My Two Empty Arms)
TTITLE5=You're All Around Me
TTITLE6=Warm And Tender Love
TTITLE7=It Tears Me Up
TTITLE8=Out Of Left Field
TTITLE9=Take Time To Know Her
TTITLE10=Baby Help Me
TTITLE11=The Dark End Of The Street
EXTD=
EXTT0=
EXTT1=
EXTT2=
EXTT3=
EXTT4=
EXTT5=
EXTT6=
EXTT7=
EXTT8=
EXTT9=
EXTT10=
EXTT11=
PLAYORDER=
